<?xml version="1.0" standalone="no"?>
<!DOCTYPE svg PUBLIC "-//W3C//DTD SVG 20010904//EN"
 "http://www.w3.org/TR/2001/REC-SVG-20010904/DTD/svg10.dtd">
<svg version="1.0" xmlns="http://www.w3.org/2000/svg"
 width="1080.000000pt" height="1028.000000pt" viewBox="0 0 1080.000000 1028.000000"
 preserveAspectRatio="xMidYMid meet">

<g transform="translate(0.000000,1028.000000) scale(0.100000,-0.100000)"
fill="#0058B1" stroke="none">
<path d="M5035 9569 c-273 -28 -622 -88 -751 -129 -17 -6 -38 -10 -47 -10 -10
0 -25 -4 -35 -9 -9 -5 -37 -15 -62 -21 -48 -13 -258 -82 -325 -107 -141 -52
-237 -95 -440 -198 -218 -111 -314 -167 -476 -276 -318 -215 -646 -504 -876
-772 -48 -56 -90 -104 -93 -107 -3 -3 -35 -43 -70 -90 -36 -47 -68 -87 -71
-90 -14 -12 -179 -259 -179 -268 0 -6 -4 -12 -8 -14 -25 -10 -197 -327 -306
-563 -39 -83 -43 -93 -96 -235 -17 -47 -36 -96 -42 -110 -11 -28 -29 -84 -48
-150 -7 -25 -20 -65 -28 -90 -8 -25 -18 -62 -23 -82 -5 -21 -13 -55 -18 -75
-102 -426 -136 -744 -127 -1163 7 -349 20 -481 70 -745 31 -167 60 -292 87
-380 12 -38 23 -83 26 -100 3 -16 9 -34 13 -40 4 -5 15 -37 25 -70 68 -230
242 -613 400 -880 98 -165 267 -413 323 -473 7 -8 25 -30 40 -50 155 -210 516
-563 767 -752 33 -25 62 -48 65 -51 15 -17 301 -206 395 -261 128 -75 475
-247 580 -288 113 -45 218 -82 305 -109 58 -18 113 -37 122 -42 10 -5 29 -9
42 -9 14 0 27 -4 30 -9 3 -5 20 -11 38 -14 18 -3 80 -16 138 -30 345 -82 616
-112 1030 -112 269 0 386 7 615 35 159 19 493 90 573 121 13 5 34 9 47 9 13 0
27 4 30 10 3 5 17 10 31 10 13 0 32 4 42 9 9 5 42 16 72 26 46 15 211 75 285
104 310 123 767 384 1016 582 35 27 71 55 79 62 196 154 372 320 559 527 92
102 271 326 271 339 0 5 4 11 9 13 12 4 169 236 228 338 134 228 247 459 313
635 12 33 28 74 35 90 7 17 27 73 45 125 17 52 35 104 40 115 5 11 16 49 25
85 9 36 20 79 25 95 57 198 111 513 139 810 14 143 14 557 0 700 -33 351 -83
627 -161 890 -46 153 -118 363 -158 460 -5 11 -17 40 -27 65 -23 57 -194 401
-229 460 -77 132 -105 177 -192 305 -52 77 -114 163 -136 191 -23 28 -54 68
-71 89 -171 221 -458 507 -700 700 -119 95 -443 325 -458 325 -2 0 -44 24 -93
53 -84 50 -152 86 -324 171 -41 21 -83 41 -92 47 -10 5 -25 9 -33 9 -8 0 -15
5 -15 10 0 6 -7 10 -15 10 -8 0 -23 4 -33 9 -57 29 -362 141 -384 141 -9 0
-20 5 -23 10 -3 6 -16 10 -27 10 -20 0 -68 13 -113 31 -11 4 -33 10 -50 14
-16 3 -46 10 -65 14 -65 16 -234 52 -335 71 -71 14 -170 26 -315 41 -140 14
-692 19 -805 8z m-1562 -1932 c45 -40 183 -160 307 -267 124 -107 227 -197
230 -200 3 -3 91 -80 195 -170 211 -183 239 -207 305 -266 36 -32 239 -207
370 -320 56 -48 196 -170 207 -180 6 -6 53 -46 103 -90 51 -43 108 -93 127
-111 27 -24 38 -29 47 -20 6 7 51 59 101 117 49 58 92 107 95 110 5 4 172 196
226 260 53 62 170 196 183 210 7 8 82 93 165 189 175 203 277 308 364 371 75
55 188 120 208 120 8 0 14 4 14 8 0 4 21 14 48 21 26 8 54 18 62 22 30 14 97
28 198 40 200 24 443 -27 677 -141 111 -54 158 -81 163 -92 2 -5 8 -8 13 -8
20 0 168 -116 169 -131 0 -13 -164 -209 -344 -409 -17 -19 -44 -51 -60 -70
-16 -19 -57 -66 -91 -105 -35 -38 -74 -83 -87 -100 -22 -29 -197 -229 -321
-369 -34 -38 -73 -84 -87 -101 -14 -17 -53 -63 -86 -101 -64 -71 -332 -379
-394 -450 -19 -23 -58 -68 -86 -100 -29 -32 -145 -167 -259 -299 -114 -132
-235 -271 -269 -309 -119 -136 -133 -151 -162 -185 -16 -19 -45 -53 -65 -75
-20 -23 -47 -54 -61 -71 -29 -34 -184 -211 -232 -265 -17 -19 -44 -51 -60 -70
-16 -19 -57 -66 -91 -105 -61 -69 -491 -564 -590 -680 -324 -379 -519 -516
-812 -571 -206 -38 -475 -3 -673 88 -186 85 -440 242 -440 272 0 3 28 39 63
79 34 39 107 124 162 187 55 63 112 129 126 145 15 17 64 73 109 125 197 227
265 305 270 310 5 5 131 150 220 254 19 23 82 95 140 161 58 66 161 185 230
265 122 141 145 168 191 220 136 156 189 219 189 228 0 6 -11 19 -24 29 -23
17 -219 186 -242 208 -6 5 -37 33 -69 60 -32 28 -77 66 -99 86 -23 20 -84 73
-136 119 -52 45 -109 94 -125 109 -17 14 -77 66 -135 116 -58 49 -114 99 -126
110 -12 11 -59 52 -105 92 -152 129 -243 241 -314 388 -110 226 -131 420 -74
695 11 53 41 153 59 195 32 79 46 109 82 180 62 123 193 315 215 315 2 0 40
-33 86 -73z m3397 -2953 c80 -69 176 -154 214 -188 38 -33 86 -74 106 -91 90
-72 271 -238 335 -306 77 -82 165 -209 212 -309 55 -118 71 -180 98 -396 9
-77 -48 -408 -76 -438 -5 -6 -9 -18 -9 -27 0 -18 -9 -37 -80 -179 -75 -146
-190 -310 -218 -310 -9 0 -38 20 -63 43 -53 48 -87 78 -184 162 -39 33 -72 62
-75 65 -3 3 -72 64 -155 135 -82 71 -163 141 -180 156 -16 16 -140 123 -275
240 -324 279 -361 312 -374 324 -6 6 -47 41 -91 80 -44 38 -86 76 -93 83 -8 7
-29 24 -48 39 -63 47 -62 56 3 129 32 36 78 89 101 117 24 29 60 70 80 92 21
22 77 87 127 145 96 112 100 116 221 255 43 49 89 101 100 115 82 97 166 190
172 190 4 0 73 -57 152 -126z"/>
</g>
</svg>
